# xmcd CD database file
#
# Track frame offsets:
#	150
#	11748
#	22208
#	32103
#	42563
#	52411
#	63774
#	73099
#	83725
#	97439
#	110939
#	121722
#	131555
#	142181
#	152703
#	166329
#	177149
#	189875
#	204623
#	216885
#	225417
#	234701
#	246211
#	255871
#	266095
#
# Disc length: 3726 seconds
#
# Revision: 3
# Processed by: cddbd v1.5.2PL0 Copyright (c) Steve Scherf et al.
# Submitted via: CDex 2.21
#
DISCID=750e8c19
DTITLE=Brenda Lee - Ultimate Collection Vol. 1 CD 2
DYEAR=2015
DGENRE=Country
TTITLE0=Fools Rush in (Where Angels Fea
TTITLE1=Around the World
TTITLE2=My Baby Likes Western Guys
TTITLE3=Some of These Days
TTITLE4=When My Dreamboat Comes Home
TTITLE5=Lover Come Back to Me
TTITLE6=I'm Sitting on Top of the World
TTITLE7=Pennies from Heaven
TTITLE8=I Want to Be Wanted
TTITLE9=All the Way
TTITLE10=Fool No. 1
TTITLE11=Baby Face
TTITLE12=Just a Little
TTITLE13=Dum Dum
TTITLE14=White Silver Sands
TTITLE15=A Good Man Is Hard to Find
TTITLE16=Pretend
TTITLE17=On the Sunny Side of the Street
TTITLE18=Just out of Reach
TTITLE19=Just Because
TTITLE20=Love and Learn
TTITLE21=Talkin' 'Bout You
TTITLE22=Sweethearts on Parade
TTITLE23=Toot, Toot, Tootsie
TTITLE24=Teach Me Tonight
EXTD=YEAR: 2015
EXTT0=
EXTT1=
EXTT2=
EXTT3=
EXTT4=
EXTT5=
EXTT6=
EXTT7=
EXTT8=
EXTT9=
EXTT10=
EXTT11=
EXTT12=
EXTT13=
EXTT14=
EXTT15=
EXTT16=
EXTT17=
EXTT18=
EXTT19=
EXTT20=
EXTT21=
EXTT22=
EXTT23=
EXTT24=
PLAYORDER=
